<svg
        width="18"
        height="18"
        viewBox="0 0 18 18"
        fill="none"
        xmlns="http://www.w3.org/2000/svg"
>
    <path
            d="M4.7056 0H4.25356C4.19588 0 4.14118 0.01212 4.08819 0.0293415C3.8234 0.115213 3.62769 0.397895 3.62769 0.736988V1.04816V1.84462V2.259C3.62769 2.336 3.64051 2.40875 3.65912 2.4784C3.7388 2.77759 3.97327 2.99599 4.25356 2.99599H4.7056C5.05132 2.99599 5.33147 2.66607 5.33147 2.259V1.84462V1.04816V0.736988C5.33147 0.329922 5.05132 0 4.7056 0Z"
            fill="#B4BBC5"/>
    <path
            d="M13.6031 0H13.151C12.8053 0 12.5251 0.329922 12.5251 0.736988V1.04816V1.84462V2.259C12.5251 2.66607 12.8053 2.99599 13.151 2.99599H13.6031C13.9488 2.99599 14.2289 2.66607 14.2289 2.259V1.84462V1.04816V0.736988C14.2288 0.329922 13.9486 0 13.6031 0Z"
            fill="#B4BBC5"/>
    <path
            d="M15.9119 1.84473H14.7926V2.25911C14.7926 2.97648 14.2588 3.56007 13.6028 3.56007H13.1508C12.4947 3.56007 11.9609 2.97648 11.9609 2.25911V1.84473H5.89535V2.25911C5.89535 2.97648 5.36154 3.56007 4.7055 3.56007H4.25346C3.59739 3.56007 3.06361 2.97648 3.06361 2.25911V1.84473H2.08838C1.46717 1.84473 0.963379 2.31705 0.963379 2.89937V16.9455C0.963379 17.5289 1.46714 18.0001 2.08838 18.0001H15.9117C16.5335 18.0001 17.0367 17.5288 17.0367 16.9455V2.89952C17.0368 2.3172 16.5336 1.84473 15.9119 1.84473ZM15.563 16.452L2.39616 16.4469V5.12284H15.563V16.452Z"
            fill="#B4BBC5"/>
    <path
            d="M10.4101 7.85204H13.873C14.1736 7.85204 14.4167 7.55188 14.4167 7.1809C14.4167 6.80993 14.1734 6.50977 13.873 6.50977H10.4101C10.1096 6.50977 9.86646 6.80993 9.86646 7.1809C9.86646 7.55173 10.1095 7.85204 10.4101 7.85204Z"
            fill="#B4BBC5"/>
    <path
            d="M10.4101 10.2758H13.873C14.1736 10.2758 14.4167 9.97567 14.4167 9.6047C14.4167 9.23376 14.1734 8.93359 13.873 8.93359H10.4101C10.1096 8.93359 9.86646 9.23376 9.86646 9.6047C9.86646 9.97567 10.1095 10.2758 10.4101 10.2758Z"
            fill="#B4BBC5"/>
    <path
            d="M10.4101 12.6997H13.873C14.1736 12.6997 14.4167 12.3995 14.4167 12.0286C14.4167 11.6576 14.1734 11.3574 13.873 11.3574H10.4101C10.1096 11.3574 9.86646 11.6576 9.86646 12.0286C9.86646 12.3995 10.1095 12.6997 10.4101 12.6997Z"
            fill="#B4BBC5"/>
    <path
            d="M10.4101 15.1245H13.873C14.1736 15.1245 14.4167 14.8243 14.4167 14.4534C14.4167 14.0824 14.1734 13.7822 13.873 13.7822H10.4101C10.1096 13.7822 9.86646 14.0824 9.86646 14.4534C9.86646 14.8243 10.1095 15.1245 10.4101 15.1245Z"
            fill="#B4BBC5"/>
    <path
            d="M4.27684 7.85204H7.73967C8.04025 7.85204 8.28333 7.55188 8.28333 7.1809C8.28333 6.80993 8.0401 6.50977 7.73967 6.50977H4.27684C3.97623 6.50977 3.73315 6.80993 3.73315 7.1809C3.73318 7.55173 3.97623 7.85204 4.27684 7.85204Z"
            fill="#B4BBC5"/>
    <path
            d="M4.27684 10.2758H7.73967C8.04025 10.2758 8.28333 9.97567 8.28333 9.6047C8.28333 9.23376 8.0401 8.93359 7.73967 8.93359H4.27684C3.97623 8.93359 3.73315 9.23376 3.73315 9.6047C3.73318 9.97567 3.97623 10.2758 4.27684 10.2758Z"
            fill="#B4BBC5"/>
    <path
            d="M4.27684 12.6997H7.73967C8.04025 12.6997 8.28333 12.3995 8.28333 12.0286C8.28333 11.6576 8.0401 11.3574 7.73967 11.3574H4.27684C3.97623 11.3574 3.73315 11.6576 3.73315 12.0286C3.73315 12.3995 3.97623 12.6997 4.27684 12.6997Z"
            fill="#B4BBC5"/>
    <path
            d="M4.27684 15.1245H7.73967C8.04025 15.1245 8.28333 14.8243 8.28333 14.4534C8.28333 14.0824 8.0401 13.7822 7.73967 13.7822H4.27684C3.97623 13.7822 3.73315 14.0824 3.73315 14.4534C3.73318 14.8243 3.97623 15.1245 4.27684 15.1245Z"
            fill="#B4BBC5"/>
</svg> 